<svg width="758" height="254" viewBox="0 0 758 254" fill="none" xmlns="http://www.w3.org/2000/svg">
<path d="M268.944 26.316C271.459 29.6055 272.814 34.056 272.814 39.2805C272.814 48.762 268.363 57.276 259.462 64.4355C266.622 54.954 270.105 45.279 270.105 35.0235C270.105 31.9275 269.717 29.025 268.944 26.316ZM140.266 47.4075C131.171 54.954 126.14 64.4355 125.56 75.465C125.367 75.078 125.366 74.304 125.366 73.3365C125.366 62.1135 130.397 53.406 140.266 47.4075ZM219.795 28.0575L223.471 27.09L196.381 116.874H193.092L219.795 28.0575ZM245.917 15.093C258.882 15.093 265.848 22.833 265.848 35.0235C265.848 44.3115 262.171 53.793 254.625 63.468C247.271 72.9495 237.79 77.4 225.987 76.8195C220.569 76.626 216.505 75.078 213.99 72.1755L229.857 19.737C235.275 16.641 240.693 15.093 245.917 15.093ZM231.598 11.61C231.598 40.8285 121.109 15.6735 121.109 73.3365C121.109 82.431 124.786 89.397 132.332 94.6215C139.685 99.6525 148.199 102.168 157.874 102.168C165.227 102.168 171.806 100.427 177.611 97.137C183.61 93.8475 186.512 89.2035 186.512 83.592C186.512 78.7545 184.384 76.239 180.32 76.239C178.966 76.239 177.999 76.4325 177.418 76.626C178.385 77.5935 178.773 79.5285 178.773 82.431C177.418 94.6215 166.582 101.394 154.972 101.394C148.78 101.394 142.975 99.459 137.75 95.589C132.332 91.719 129.623 86.1075 129.623 78.561C129.623 65.5965 136.396 55.1475 144.329 49.149C148.393 46.053 154.005 43.1505 160.777 40.635C167.55 37.926 173.548 35.991 178.773 34.83C183.997 33.4755 190.383 32.121 198.316 30.3795C206.25 28.638 212.248 27.2835 215.924 26.316C216.118 26.316 216.505 26.316 216.699 26.1225L188.448 119.196C188.254 119.97 187.674 120.357 186.706 120.357H173.742V121.131H212.248V120.357H200.638C199.864 120.357 199.671 119.97 199.864 119.196L213.603 73.3365C217.279 76.626 223.471 78.3675 232.179 78.3675C245.53 78.3675 256.173 74.1105 264.493 65.5965C272.814 57.0825 277.07 48.375 277.07 39.2805C277.07 25.155 267.976 14.319 249.207 14.319C241.66 14.319 235.275 15.6735 229.857 18.3825C231.598 16.0605 232.372 13.545 232.372 11.0295C232.372 4.06351 227.341 0 220.569 0C215.344 0 211.861 2.709 211.861 6.3855C211.861 8.127 212.635 9.0945 214.377 9.4815C215.344 5.80501 218.053 3.87001 222.891 3.87001C227.728 3.87001 231.598 6.7725 231.598 11.61Z" fill="#86553B"/>
<path d="M271.583 105.264C268.68 115.52 275.84 121.905 286.869 121.905C295.383 121.905 301.769 113.778 303.897 104.684L303.123 104.49C301.575 112.811 295.19 121.131 286.869 121.131C283.193 121.131 281.451 119.196 281.451 115.133C281.451 113.391 281.838 111.263 282.612 108.747L309.896 16.641H288.224L288.03 17.415H307.187L306.993 17.9955L304.671 18.189C301.575 18.189 296.738 21.672 294.609 28.0575L271.583 105.264ZM276.42 113.778C275.066 112.037 274.872 109.715 275.646 106.425L298.673 29.2185C299.64 26.5095 300.995 24.5745 303.123 23.22H303.51L303.704 23.0265L278.549 107.586C277.775 109.715 277.388 112.037 277.194 114.552L276.42 113.778Z" fill="#86553B"/>
<path d="M365.703 60.372C364.542 60.372 363.961 60.759 363.768 61.7265L359.317 75.852C360.091 66.564 357.189 58.6305 348.481 58.6305C337.839 58.6305 328.357 63.2745 320.424 72.5625C312.49 81.8505 308.427 91.719 308.427 102.168C308.427 114.359 315.006 122.099 327.39 122.099C331.453 122.099 335.904 120.164 340.741 116.1C345.579 112.037 349.062 107.393 351.19 101.975L350.803 104.297C347.901 114.939 354.286 122.099 365.896 122.099C374.604 122.099 380.989 113.972 382.731 104.684H381.957C380.215 113.778 374.217 121.325 365.896 121.325C360.672 121.325 359.317 117.261 361.639 108.941L375.571 61.7265C375.765 60.759 375.378 60.372 374.604 60.372H365.703ZM353.899 93.8475C351.771 101.201 347.901 107.586 342.289 113.198C336.871 118.616 331.84 121.325 327.39 121.325C321.778 121.325 318.876 117.261 318.876 109.328C318.682 103.329 320.037 96.5565 322.939 88.8165C325.842 80.883 329.712 74.1105 334.549 68.3055C339.387 62.307 344.031 59.4045 348.481 59.4045C359.704 59.4045 359.511 72.9495 357.963 80.883L353.899 93.8475ZM356.802 115.133C354.673 112.23 354.286 108.36 355.641 103.523L367.444 64.629H370.347L357.576 107.78C356.802 110.295 356.608 112.811 356.802 115.133ZM314.812 111.263C313.458 108.747 312.684 105.845 312.684 102.168C312.684 92.88 316.167 83.979 323.326 75.6585C323.907 74.8845 324.874 73.917 326.229 72.5625C318.489 85.3335 314.619 97.524 314.619 109.328C314.619 110.295 314.619 110.876 314.812 111.263Z" fill="#86553B"/>
<path d="M396.347 120.744C397.121 120.744 397.701 120.357 398.088 119.39L407.376 88.623C409.892 81.27 413.955 74.691 419.567 68.886C425.178 62.8875 430.983 59.985 436.595 59.985C440.852 59.985 442.4 62.1135 441.045 66.3705L429.242 105.071C426.146 115.907 433.499 121.905 443.367 121.905C452.655 121.905 458.654 116.1 461.363 104.684L460.589 104.49C459.234 112.424 452.462 121.131 444.528 121.131C439.304 121.131 437.949 117.068 440.271 108.747L449.946 74.8845C452.268 66.564 445.883 59.211 436.788 59.211C426.533 59.211 416.084 69.0795 409.311 81.657L415.31 61.7265C415.503 60.759 415.116 60.372 414.149 60.372H393.638L393.444 61.146H412.988L412.794 61.92H410.279C407.183 62.1135 402.345 65.403 400.217 71.7885L385.898 119.39C385.704 120.357 386.091 120.744 387.059 120.744H396.347ZM404.28 72.9495C405.248 69.66 406.989 67.5315 409.311 66.564L394.412 116.487H391.316L404.28 72.9495ZM434.853 114.746C432.725 112.23 432.338 109.521 433.305 106.232L445.109 67.5315C446.27 69.4665 446.463 71.595 445.883 73.7235L436.208 107.393C435.627 109.521 435.047 112.037 434.853 114.746Z" fill="#86553B"/>
<path d="M466.258 105.071C463.162 115.907 471.482 121.905 482.512 121.905C491.026 121.905 497.411 113.778 499.54 104.684L498.766 104.49C497.218 112.811 490.832 121.131 482.512 121.131C476.513 121.131 474.772 117.068 477.287 108.747L491.413 61.146H505.538L505.732 60.372H491.606L497.798 39.6675H496.444C494.122 49.149 486.188 57.8565 479.416 60.372H473.998L473.804 61.146H479.222L466.258 105.071ZM471.095 113.391C469.741 111.65 469.547 109.328 470.321 106.232L483.092 63.2745C484.06 62.8875 485.414 62.1135 487.156 60.759L485.995 64.629L473.224 107.393C472.45 109.908 472.063 112.23 472.063 114.359L471.095 113.391Z" fill="#86553B"/>
<path d="M556.844 68.3055C556.844 62.1135 551.813 58.6305 543.88 58.6305C532.85 58.6305 523.175 63.2745 515.242 72.369C507.308 81.4635 503.245 91.332 503.245 101.975C503.245 114.165 510.404 122.099 524.53 122.099C536.14 122.099 546.589 113.585 550.459 103.716L549.685 103.329C546.008 112.617 536.914 120.744 525.497 120.744C517.951 120.744 514.274 116.1 514.274 106.619C514.274 101.007 515.435 94.815 517.757 88.0425C527.432 90.558 536.333 89.5905 544.46 84.753C552.781 79.9155 556.844 74.4975 556.844 68.3055ZM543.88 59.4045C546.782 59.4045 549.104 61.3395 549.104 64.629C549.104 70.434 546.008 76.0455 539.623 81.4635C533.237 86.8815 526.078 88.8165 518.144 87.2685C521.047 79.722 524.917 73.143 529.948 67.725C534.979 62.1135 539.623 59.4045 543.88 59.4045ZM510.598 112.424C508.469 109.908 507.502 106.425 507.502 101.975C507.502 90.945 511.952 81.27 520.853 72.5625C517.177 78.948 514.274 84.753 512.533 90.3645C510.791 95.3955 510.017 100.814 510.017 106.619C510.017 108.747 510.211 110.682 510.598 112.424ZM553.168 66.177C554.135 67.5315 553.555 69.8535 551.813 73.53C550.072 77.2065 547.943 79.335 545.428 80.109H545.041C546.976 79.1415 548.911 76.626 550.652 72.9495C552.394 69.273 553.168 66.7575 552.781 65.79L553.168 66.177Z" fill="#86553B"/>
<path d="M590.161 59.4045C596.547 59.4045 600.417 62.8875 600.417 68.3055C600.417 73.143 597.127 76.4325 593.451 77.4C593.451 78.7545 595.966 79.9155 598.288 79.9155C602.739 79.9155 606.415 76.4325 606.415 71.208C606.415 64.242 599.643 58.6305 588.807 58.6305C576.229 58.6305 568.296 66.564 568.296 75.2715C568.296 81.657 574.101 88.0425 579.519 91.9125C585.13 95.589 590.935 101.781 590.935 108.167C590.935 115.713 585.13 122.292 574.101 122.292C564.619 122.292 559.395 117.455 559.395 110.682C559.395 104.49 563.845 99.459 569.263 99.459C570.231 99.459 571.005 99.459 571.585 99.6525C571.005 96.5565 568.683 95.0085 565.006 95.0085C558.814 95.0085 553.977 100.62 553.977 107.393C553.977 115.907 561.523 123.066 574.681 123.066C582.421 123.066 588.613 120.938 593.451 116.874C598.288 112.617 600.804 107.78 600.804 102.555C600.804 91.332 588.226 85.527 581.841 78.174C575.455 70.2405 578.551 59.4045 590.161 59.4045ZM595.192 107.973C595.192 102.362 591.516 96.363 588.613 93.8475C587.259 92.493 585.13 90.558 582.421 88.4295C577.777 84.5595 576.423 83.3985 574.101 80.3025C573.133 78.561 572.553 77.013 572.553 75.2715C572.553 73.3365 573.133 71.4015 574.101 69.66V69.8535C574.101 74.691 577.584 79.9155 580.099 82.431C581.454 83.7855 583.582 85.527 586.098 87.6555C590.935 91.719 592.483 93.0735 594.805 96.9435C597.127 100.62 596.934 104.684 595.192 107.973Z" fill="#86553B"/>
<path d="M144.217 198.886C144.217 206.82 142.669 215.14 139.379 223.461L138.218 225.589C140.54 218.623 141.701 210.883 141.701 202.562C141.701 182.051 132.8 163.476 114.998 147.028C133.381 158.832 144.217 177.794 144.217 198.886ZM182.723 181.858C185.626 171.602 189.689 163.282 194.914 157.09C192.592 161.927 190.463 168.119 188.335 175.859L177.692 213.979L171.113 237.586C170.339 239.908 169.178 244.552 168.985 245.52C168.985 245.713 168.791 246.681 168.598 246.874H164.921L182.723 181.858ZM124.286 241.069C119.836 241.069 117.707 237.586 117.707 230.814C117.707 225.396 119.449 218.623 122.932 210.496C126.608 202.369 130.672 195.403 135.509 189.598C137.638 200.628 137.444 211.851 134.542 223.654C131.639 235.264 128.35 241.069 124.286 241.069ZM135.316 188.631C130.478 194.629 126.221 201.789 122.545 210.109C118.868 218.43 117.127 225.202 117.127 230.814C117.127 237.973 119.449 241.65 124.286 241.65C129.317 241.65 134.155 238.554 138.992 232.362C143.83 226.17 146.926 218.236 148.667 208.755C150.409 199.273 149.248 188.631 145.571 177.214C164.728 158.445 184.078 147.609 204.008 144.9C192.979 149.35 184.465 161.347 178.66 180.697L159.89 249.196C159.697 249.97 159.116 250.357 158.149 250.357H145.184V251.131H186.787V250.357H173.242C172.468 250.357 172.274 249.97 172.468 249.196L192.398 177.021C199.171 154.381 205.169 143.545 218.134 143.545L218.327 142.771L208.459 143.545C197.236 144.513 186.013 147.995 174.983 154.188C163.954 160.38 154.085 167.732 145.378 176.44C140.153 163.089 131.059 152.253 117.707 143.739C104.356 135.031 86.5539 130.774 64.1079 130.774C47.4669 130.774 32.9544 135.225 20.3769 143.932C7.79937 152.64 1.02687 164.056 0.0593693 178.182C-0.521131 189.598 3.15537 199.467 11.0889 207.4C19.0224 215.334 30.0519 219.204 44.1774 219.204C51.9174 219.204 58.8834 217.462 65.2689 213.979C71.6544 210.303 74.7504 205.659 74.7504 199.66C74.7504 194.049 71.0739 190.952 65.6559 192.694C66.6234 193.661 67.0104 195.597 67.0104 198.499C66.4299 204.885 63.5274 209.722 58.3029 213.205C53.2719 216.688 47.6604 218.43 41.2749 218.43C30.6324 218.236 21.9249 214.366 15.1524 206.433C8.37987 198.499 5.28387 189.018 5.86437 178.182C6.63837 165.217 12.8304 154.381 24.4404 145.286C36.0504 136.192 49.2084 131.742 63.7209 131.548C80.7489 131.548 95.6484 136.772 108.613 147.221L77.4594 246.681C76.6854 249.196 74.9439 250.357 72.2349 250.357H56.3679L55.9809 251.131H96.8094L97.1964 250.357H81.1359C78.6204 250.357 77.6529 249.196 78.4269 246.681L109.387 147.802C121.964 158.251 130.672 171.796 135.316 188.631Z" fill="#86553B"/>
<path d="M250.438 198.306C250.438 192.114 245.407 188.631 237.473 188.631C226.444 188.631 216.769 193.275 208.835 202.369C200.902 211.464 196.838 221.332 196.838 231.975C196.838 244.165 203.998 252.099 218.123 252.099C229.733 252.099 240.182 243.585 244.052 233.716L243.278 233.329C239.602 242.617 230.507 250.744 219.091 250.744C211.544 250.744 207.868 246.1 207.868 236.619C207.868 231.007 209.029 224.815 211.351 218.043C221.026 220.558 229.927 219.591 238.054 214.753C246.374 209.915 250.438 204.498 250.438 198.306ZM237.473 189.405C240.376 189.405 242.698 191.339 242.698 194.629C242.698 200.434 239.602 206.046 233.216 211.464C226.831 216.882 219.671 218.817 211.738 217.269C214.64 209.722 218.51 203.143 223.541 197.725C228.572 192.114 233.216 189.405 237.473 189.405ZM204.191 242.424C202.063 239.908 201.095 236.425 201.095 231.975C201.095 220.945 205.546 211.27 214.447 202.562C210.77 208.948 207.868 214.753 206.126 220.365C204.385 225.396 203.611 230.814 203.611 236.619C203.611 238.747 203.804 240.682 204.191 242.424ZM246.761 196.177C247.729 197.532 247.148 199.854 245.407 203.53C243.665 207.207 241.537 209.335 239.021 210.109H238.634C240.569 209.142 242.504 206.626 244.246 202.95C245.987 199.273 246.761 196.758 246.374 195.79L246.761 196.177ZM259.339 153.607C260.693 152.64 261.661 151.479 262.241 150.124C263.015 147.995 262.241 146.448 259.919 145.867C256.63 144.9 253.534 146.254 250.244 150.318L233.41 171.215H234.958L259.339 153.607ZM255.082 150.124C255.856 149.544 256.63 149.157 257.21 149.35C258.178 149.544 258.178 150.124 257.21 151.092L244.826 161.54L244.052 161.734L255.082 150.124Z" fill="#86553B"/>
<path d="M312.163 146.641L311.969 147.415H331.319L331.126 147.995L328.804 148.189C325.514 148.189 320.677 151.672 318.548 158.057L304.423 206.046C305.003 194.436 301.327 188.631 293.587 188.631C282.944 188.631 273.656 193.275 265.529 202.562C257.596 211.85 253.532 221.913 253.532 232.749C253.532 244.165 259.531 252.099 272.495 252.099C279.655 252.099 288.169 245.326 294.167 236.038L295.522 236.232C293.006 246.487 300.553 252.099 311.389 252.099C320.483 252.099 327.062 242.811 328.03 233.523L327.256 233.329C325.901 242.617 319.903 251.325 311.389 251.325C305.971 251.325 304.423 247.261 306.745 238.941L333.835 146.641H312.163ZM272.495 251.325C266.69 251.325 263.981 246.874 264.175 237.973C264.368 228.105 267.851 217.462 274.237 206.239C280.622 195.016 287.201 189.405 293.587 189.405C302.294 189.405 305.584 196.37 303.262 210.496L297.844 227.718C295.522 233.716 291.845 239.134 286.621 243.972C281.396 248.809 276.752 251.325 272.495 251.325ZM300.553 243.972C299.392 242.23 299.005 240.102 299.585 237.586L322.612 159.219C323.966 155.736 325.514 153.607 327.643 152.833L302.681 237.78C301.907 240.489 301.52 242.811 301.52 244.939L300.553 243.972ZM260.111 241.843C258.563 239.521 257.789 236.425 257.789 232.749C257.789 222.106 262.24 212.044 271.334 202.756C263.788 214.173 259.918 226.363 259.918 238.941C259.918 240.295 259.918 241.263 260.111 241.843Z" fill="#86553B"/>
<path d="M365.604 234.684C363.862 243.778 358.057 251.131 349.737 251.131C346.06 251.131 344.319 249.196 344.319 245.133C344.319 243.391 344.706 241.263 345.48 238.747L359.605 191.727C359.799 190.759 359.412 190.372 358.638 190.372H338.32L337.933 191.146H357.477L357.09 191.92C350.704 191.92 346.447 195.21 344.512 201.788L334.45 235.264C333.87 236.812 333.676 238.36 333.676 240.102C333.676 247.842 340.642 251.905 349.737 251.905C358.251 251.905 364.636 243.778 366.378 234.684H365.604ZM356.509 154.381C355.929 158.251 359.025 161.347 363.088 161.347C367.152 161.347 371.215 158.251 371.409 154.381C373.344 145.093 357.283 145.093 356.509 154.381ZM340.062 244.939C338.707 243.585 337.933 241.843 337.933 240.102C337.933 238.941 338.127 237.78 338.514 236.619L348.576 203.143C349.543 199.854 351.285 197.725 353.8 196.758L341.416 237.586C340.449 240.295 340.062 242.811 340.062 244.939ZM361.153 154.381C361.734 152.64 362.701 151.672 364.443 151.672C366.378 151.672 367.152 152.64 366.765 154.381C366.571 156.123 365.41 156.896 363.669 156.896C361.734 156.896 360.96 156.123 361.153 154.381Z" fill="#86553B"/>
<path d="M416.568 232.362C412.698 242.617 404.184 250.551 393.155 250.551C386.576 250.551 383.093 246.1 382.899 237.006C382.706 227.331 385.608 217.269 391.607 206.626C397.799 195.597 404.571 190.178 411.731 190.178C415.988 190.178 418.116 191.727 418.116 194.629C418.116 199.466 415.601 202.562 410.376 204.111C409.989 204.304 409.989 204.691 410.183 205.271C411.15 207.206 413.085 208.174 415.601 208.174C420.438 208.174 424.308 203.917 424.308 198.693C424.308 193.468 418.697 189.405 411.731 189.405C408.828 189.405 405.732 189.792 402.83 190.372C391.8 193.081 383.093 199.854 376.901 210.883C371.289 220.752 369.548 230.04 372.063 238.554C374.579 247.648 380.964 252.099 391.607 252.099C403.217 252.099 413.472 243.198 417.342 232.942L416.568 232.362ZM378.836 242.424C376.707 239.908 375.546 236.232 375.546 231.588C375.546 220.945 379.997 211.27 389.091 202.562C385.415 208.948 382.512 214.753 380.771 220.365C379.029 225.396 378.255 230.814 378.255 236.619C378.255 238.747 378.449 240.682 378.836 242.424Z" fill="#86553B"/>
<path d="M457.44 234.684C455.699 243.778 449.894 251.131 441.573 251.131C437.897 251.131 436.155 249.196 436.155 245.133C436.155 243.391 436.542 241.263 437.316 238.747L451.442 191.727C451.635 190.759 451.248 190.372 450.474 190.372H430.157L429.77 191.146H449.313L448.926 191.92C442.541 191.92 438.284 195.21 436.349 201.788L426.287 235.264C425.706 236.812 425.513 238.36 425.513 240.102C425.513 247.842 432.479 251.905 441.573 251.905C450.087 251.905 456.473 243.778 458.214 234.684H457.44ZM448.346 154.381C447.765 158.251 450.861 161.347 454.925 161.347C458.988 161.347 463.052 158.251 463.245 154.381C465.18 145.093 449.12 145.093 448.346 154.381ZM431.898 244.939C430.544 243.585 429.77 241.843 429.77 240.102C429.77 238.941 429.964 237.78 430.35 236.619L440.412 203.143C441.38 199.854 443.121 197.725 445.637 196.758L433.253 237.586C432.285 240.295 431.898 242.811 431.898 244.939ZM452.99 154.381C453.57 152.64 454.538 151.672 456.279 151.672C458.214 151.672 458.988 152.64 458.601 154.381C458.408 156.123 457.247 156.896 455.505 156.896C453.57 156.896 452.796 156.123 452.99 154.381Z" fill="#86553B"/>
<path d="M472.027 250.744C472.801 250.744 473.382 250.357 473.769 249.39L483.057 218.623C485.572 211.27 489.636 204.691 495.247 198.886C500.859 192.887 506.664 189.985 512.275 189.985C516.532 189.985 518.08 192.113 516.726 196.37L504.922 235.071C501.826 245.907 509.179 251.905 519.048 251.905C528.336 251.905 534.334 246.1 537.043 234.684L536.269 234.49C534.915 242.424 528.142 251.131 520.209 251.131C514.984 251.131 513.63 247.068 515.952 238.747L525.627 204.885C527.949 196.564 521.563 189.211 512.469 189.211C502.213 189.211 491.764 199.08 484.992 211.657L490.99 191.727C491.184 190.759 490.797 190.372 489.829 190.372H469.318L469.125 191.146H488.668L488.475 191.92H485.959C482.863 192.113 478.026 195.403 475.897 201.788L461.578 249.39C461.385 250.357 461.772 250.744 462.739 250.744H472.027ZM479.961 202.95C480.928 199.66 482.67 197.532 484.992 196.564L470.092 246.487H466.996L479.961 202.95ZM510.534 244.746C508.405 242.23 508.018 239.521 508.986 236.232L520.789 197.532C521.95 199.467 522.144 201.595 521.563 203.724L511.888 237.393C511.308 239.521 510.727 242.037 510.534 244.746Z" fill="#86553B"/>
<path d="M597.279 190.372C596.118 190.372 595.538 190.759 595.344 191.727L590.894 205.852C591.668 196.564 588.765 188.631 580.058 188.631C569.415 188.631 559.934 193.275 552 202.562C544.067 211.85 540.003 221.719 540.003 232.168C540.003 244.359 546.582 252.099 558.966 252.099C563.029 252.099 567.48 250.164 572.318 246.1C577.155 242.036 580.638 237.393 582.767 231.975L582.38 234.297C579.477 244.939 585.863 252.099 597.473 252.099C606.18 252.099 612.566 243.972 614.307 234.684H613.533C611.792 243.778 605.793 251.325 597.473 251.325C592.248 251.325 590.893 247.261 593.216 238.941L607.148 191.727C607.341 190.759 606.954 190.372 606.18 190.372H597.279ZM585.476 223.848C583.347 231.201 579.477 237.586 573.866 243.198C568.448 248.616 563.417 251.325 558.966 251.325C553.354 251.325 550.452 247.261 550.452 239.328C550.259 233.329 551.613 226.557 554.516 218.817C557.418 210.883 561.288 204.111 566.126 198.306C570.963 192.307 575.607 189.405 580.058 189.405C591.281 189.405 591.087 202.95 589.539 210.883L585.476 223.848ZM588.378 245.133C586.25 242.23 585.863 238.36 587.217 233.523L599.021 194.629H601.923L589.152 237.78C588.378 240.295 588.185 242.811 588.378 245.133ZM546.389 241.263C545.034 238.747 544.26 235.845 544.26 232.168C544.26 222.88 547.743 213.979 554.903 205.659C555.483 204.885 556.451 203.917 557.805 202.562C550.065 215.333 546.195 227.524 546.195 239.328C546.195 240.295 546.195 240.876 546.389 241.263Z" fill="#86553B"/>
<path d="M617.861 235.264C614.959 245.52 622.118 251.905 633.148 251.905C641.662 251.905 648.047 243.778 650.176 234.684L649.402 234.49C647.854 242.811 641.468 251.131 633.148 251.131C629.471 251.131 627.73 249.196 627.73 245.133C627.73 243.391 628.117 241.263 628.891 238.747L656.174 146.641H634.502L634.309 147.415H653.465L653.272 147.995L650.95 148.189C647.854 148.189 643.016 151.672 640.888 158.057L617.861 235.264ZM622.699 243.778C621.344 242.037 621.151 239.715 621.925 236.425L644.951 159.219C645.919 156.51 647.273 154.575 649.402 153.22H649.789L649.982 153.027L624.827 237.586C624.053 239.715 623.666 242.037 623.473 244.552L622.699 243.778Z" fill="#86553B"/>
<path d="M708.111 198.306C708.111 192.114 703.08 188.631 695.146 188.631C684.117 188.631 674.442 193.275 666.508 202.369C658.575 211.464 654.511 221.332 654.511 231.975C654.511 244.165 661.671 252.099 675.796 252.099C687.406 252.099 697.855 243.585 701.725 233.716L700.951 233.329C697.275 242.617 688.18 250.744 676.764 250.744C669.217 250.744 665.541 246.1 665.541 236.619C665.541 231.007 666.702 224.815 669.024 218.043C678.699 220.558 687.6 219.591 695.727 214.753C704.047 209.915 708.111 204.498 708.111 198.306ZM695.146 189.405C698.049 189.405 700.371 191.339 700.371 194.629C700.371 200.434 697.275 206.046 690.889 211.464C684.504 216.882 677.344 218.817 669.411 217.269C672.313 209.722 676.183 203.143 681.214 197.725C686.245 192.114 690.889 189.405 695.146 189.405ZM661.864 242.424C659.736 239.908 658.768 236.425 658.768 231.975C658.768 220.945 663.219 211.27 672.12 202.562C668.443 208.948 665.541 214.753 663.799 220.365C662.058 225.396 661.284 230.814 661.284 236.619C661.284 238.747 661.477 240.682 661.864 242.424ZM704.434 196.177C705.402 197.532 704.821 199.854 703.08 203.53C701.338 207.207 699.21 209.335 696.694 210.109H696.307C698.242 209.142 700.177 206.626 701.919 202.95C703.66 199.273 704.434 196.758 704.047 195.79L704.434 196.177Z" fill="#86553B"/>
<path d="M741.427 189.405C747.813 189.405 751.683 192.888 751.683 198.306C751.683 203.143 748.393 206.433 744.717 207.4C744.717 208.755 747.232 209.916 749.554 209.916C754.005 209.916 757.681 206.433 757.681 201.208C757.681 194.242 750.909 188.631 740.073 188.631C727.495 188.631 719.562 196.564 719.562 205.271C719.562 211.657 725.367 218.043 730.785 221.913C736.396 225.589 742.201 231.781 742.201 238.167C742.201 245.713 736.396 252.292 725.367 252.292C715.885 252.292 710.661 247.455 710.661 240.682C710.661 234.49 715.111 229.459 720.529 229.459C721.497 229.459 722.271 229.459 722.851 229.653C722.271 226.557 719.949 225.009 716.272 225.009C710.08 225.009 705.243 230.62 705.243 237.393C705.243 245.907 712.789 253.066 725.947 253.066C733.687 253.066 739.879 250.938 744.717 246.874C749.555 242.617 752.07 237.78 752.07 232.555C752.07 221.332 739.492 215.527 733.107 208.174C726.721 200.241 729.818 189.405 741.427 189.405ZM746.458 237.973C746.458 232.362 742.782 226.363 739.879 223.848C738.525 222.493 736.396 220.558 733.687 218.43C729.043 214.56 727.689 213.398 725.367 210.303C724.399 208.561 723.819 207.013 723.819 205.271C723.819 203.337 724.399 201.402 725.367 199.66V199.854C725.367 204.691 728.85 209.916 731.365 212.431C732.72 213.786 734.848 215.527 737.364 217.656C742.201 221.719 743.749 223.074 746.071 226.944C748.393 230.62 748.2 234.684 746.458 237.973Z" fill="#86553B"/>
<path d="M268.944 26.316C269.718 29.025 270.105 31.9275 270.105 35.0235C270.105 45.279 266.622 54.954 259.462 64.4355C268.363 57.276 272.814 48.762 272.814 39.2805C272.814 34.056 271.459 29.6055 268.944 26.316ZM140.266 47.4075C130.398 53.406 125.367 62.1135 125.367 73.3365C125.367 74.304 125.367 75.078 125.56 75.465C126.141 64.4355 131.172 54.954 140.266 47.4075ZM223.471 27.09L219.795 28.0575L193.092 116.874H196.381L223.471 27.09Z" fill="#CB997E"/>
<path d="M277.194 114.552C277.388 112.036 277.775 109.715 278.549 107.586L303.704 23.0265L303.317 23.22C303.317 23.22 303.317 23.22 303.124 23.22C300.995 24.5745 299.641 26.5095 298.673 29.2185L275.646 106.425C274.872 109.715 275.066 112.036 276.421 113.778L277.194 114.552Z" fill="#CB997E"/>
<path d="M356.802 115.133C356.608 112.811 356.802 110.295 357.576 107.78L370.347 64.629H367.444L355.641 103.522C354.286 108.36 354.673 112.23 356.802 115.133ZM314.812 111.263C314.619 110.876 314.619 110.295 314.619 109.327C314.619 97.524 318.489 85.3335 326.229 72.5625C324.874 73.917 323.907 74.8845 323.326 75.6585C316.167 83.979 312.684 92.88 312.684 102.168C312.684 105.844 313.458 108.747 314.812 111.263Z" fill="#CB997E"/>
<path d="M409.311 66.564C406.989 67.5315 405.248 69.66 404.28 72.9495L391.316 116.487H394.412L409.311 66.564ZM434.853 114.746C435.047 112.037 435.627 109.521 436.208 107.393L445.883 73.7235C446.463 71.595 446.27 69.4665 445.109 67.5315L433.305 106.231C432.338 109.521 432.725 112.23 434.853 114.746Z" fill="#CB997E"/>
<path d="M472.063 114.359C472.063 112.23 472.45 109.908 473.224 107.393L485.995 64.629L487.156 60.759C485.414 62.1135 484.06 62.8875 483.092 63.2745L470.321 106.231C469.547 109.327 469.741 111.65 471.095 113.391L472.063 114.359Z" fill="#CB997E"/>
<path d="M510.598 112.424C510.211 110.682 510.017 108.747 510.017 106.618C510.017 100.813 510.791 95.3955 512.533 90.3645C514.274 84.753 517.177 78.948 520.853 72.5625C511.952 81.27 507.502 90.945 507.502 101.975C507.502 106.425 508.469 109.908 510.598 112.424ZM552.781 65.79C553.168 66.7575 552.394 69.273 550.652 72.9495C548.911 76.626 546.976 79.1415 545.041 80.109H545.428C547.943 79.335 550.072 77.2065 551.813 73.53C553.555 69.8535 554.135 67.5315 553.168 66.177L552.781 65.79Z" fill="#CB997E"/>
<path d="M595.192 107.973C596.934 104.684 597.127 100.62 594.805 96.9435C592.483 93.0735 590.935 91.719 586.098 87.6555C580.873 83.205 578.938 81.657 576.036 77.013C574.681 74.691 574.101 72.369 574.101 69.8535V69.66C573.133 71.4015 572.553 73.3365 572.553 75.2715C572.553 78.561 575.262 82.044 577.39 84.1725C578.358 85.14 580.099 86.4945 582.421 88.4295C587.839 92.88 589.968 94.428 592.87 99.846C594.418 102.362 595.192 105.07 595.192 107.973Z" fill="#CB997E"/>
<path d="M144.217 198.886C144.217 177.794 133.381 158.831 114.998 147.028C132.8 163.475 141.701 182.051 141.701 202.562C141.701 210.883 140.54 218.623 138.218 225.589L139.379 223.46C142.669 215.14 144.217 206.819 144.217 198.886ZM168.598 246.874C168.791 246.68 168.985 245.713 168.985 245.52C169.178 244.552 170.339 239.908 171.113 237.586L177.692 213.979L188.335 175.859C190.463 168.119 192.592 161.927 194.914 157.09C189.689 163.282 185.626 171.602 182.723 181.858L164.921 246.874H168.598Z" fill="#CB997E"/>
<path d="M204.191 242.423C203.804 240.682 203.611 238.747 203.611 236.618C203.611 230.813 204.385 225.395 206.126 220.364C207.868 214.753 210.77 208.948 214.447 202.562C205.546 211.27 201.095 220.945 201.095 231.974C201.095 236.425 202.063 239.908 204.191 242.423ZM246.374 195.79C246.761 196.757 245.987 199.273 244.246 202.949C242.504 206.626 240.569 209.141 238.634 210.109H239.021C241.537 209.335 243.665 207.206 245.407 203.53C247.148 199.854 247.729 197.531 246.761 196.177L246.374 195.79ZM257.21 151.091C257.791 150.511 257.984 150.124 257.791 149.737C257.21 148.769 256.436 148.963 255.082 150.124L244.052 161.734L244.826 161.54L257.21 151.091Z" fill="#CB997E"/>
<path d="M301.52 244.939C301.52 242.811 301.907 240.488 302.681 237.779L327.643 152.833C325.514 153.607 323.966 155.735 322.612 159.218L299.585 237.586C299.005 240.102 299.392 242.23 300.553 243.971L301.52 244.939ZM260.111 241.843C259.918 241.262 259.918 240.295 259.918 238.94C259.918 226.363 263.788 214.173 271.334 202.756C262.24 212.044 257.789 222.106 257.789 232.748C257.789 236.425 258.563 239.521 260.111 241.843Z" fill="#CB997E"/>
<path d="M340.062 244.939C340.062 242.811 340.449 240.295 341.416 237.586L353.8 196.757C351.285 197.725 349.543 199.853 348.576 203.143L338.514 236.618C338.127 237.779 337.933 238.941 337.933 240.102C337.933 241.843 338.707 243.584 340.062 244.939ZM361.153 154.381C360.96 156.122 361.734 156.896 363.669 156.896C365.41 156.896 366.571 156.122 366.765 154.381C367.152 152.639 366.378 151.672 364.443 151.672C362.701 151.672 361.734 152.639 361.153 154.381Z" fill="#CB997E"/>
<path d="M378.642 242.423C378.255 240.682 378.062 238.747 378.062 236.618C378.062 230.813 378.836 225.395 380.577 220.364C382.319 214.753 385.221 208.948 388.898 202.562C379.803 211.27 375.353 220.945 375.353 231.587C375.353 236.231 376.514 239.908 378.642 242.423Z" fill="#CB997E"/>
<path d="M431.898 244.939C431.898 242.811 432.286 240.295 433.253 237.586L445.637 196.757C443.122 197.725 441.38 199.853 440.413 203.143L430.351 236.618C429.964 237.779 429.77 238.941 429.77 240.102C429.77 241.843 430.544 243.584 431.898 244.939ZM452.99 154.381C452.797 156.122 453.571 156.896 455.506 156.896C457.247 156.896 458.408 156.122 458.602 154.381C458.988 152.639 458.215 151.672 456.28 151.672C454.538 151.672 453.571 152.639 452.99 154.381Z" fill="#CB997E"/>
<path d="M484.992 196.564C482.67 197.531 480.928 199.66 479.961 202.949L466.996 246.487H470.092L484.992 196.564ZM510.534 244.745C510.727 242.036 511.308 239.521 511.888 237.393L521.563 203.723C522.144 201.595 521.95 199.466 520.789 197.531L508.986 236.231C508.018 239.521 508.405 242.23 510.534 244.745Z" fill="#CB997E"/>
<path d="M588.378 245.132C588.185 242.81 588.378 240.295 589.152 237.779L601.923 194.629H599.021L587.217 233.522C585.863 238.36 586.25 242.23 588.378 245.132ZM546.389 241.262C546.195 240.876 546.195 240.295 546.195 239.327C546.195 227.524 550.065 215.333 557.805 202.562C556.451 203.917 555.483 204.884 554.903 205.658C547.743 213.979 544.26 222.88 544.26 232.168C544.26 235.844 545.034 238.747 546.389 241.262Z" fill="#CB997E"/>
<path d="M623.473 244.552C623.666 242.036 624.053 239.714 624.827 237.586L649.982 153.026L649.595 153.22C649.595 153.22 649.595 153.22 649.402 153.22C647.273 154.574 645.919 156.509 644.951 159.218L621.925 236.425C621.151 239.714 621.344 242.036 622.699 243.778L623.473 244.552Z" fill="#CB997E"/>
<path d="M661.864 242.423C661.477 240.682 661.284 238.747 661.284 236.618C661.284 230.813 662.058 225.395 663.799 220.364C665.541 214.753 668.443 208.948 672.12 202.562C663.219 211.27 658.768 220.945 658.768 231.974C658.768 236.425 659.736 239.908 661.864 242.423ZM704.047 195.79C704.434 196.757 703.66 199.273 701.919 202.949C700.177 206.626 698.242 209.141 696.307 210.109H696.694C699.21 209.335 701.338 207.206 703.08 203.53C704.821 199.854 705.402 197.531 704.434 196.177L704.047 195.79Z" fill="#CB997E"/>
<path d="M746.458 237.973C748.2 234.683 748.393 230.62 746.071 226.943C743.749 223.074 742.201 221.719 737.364 217.655C732.139 213.205 730.204 211.657 727.302 207.013C725.947 204.691 725.367 202.369 725.367 199.853V199.66C724.399 201.401 723.819 203.336 723.819 205.271C723.819 208.561 726.528 212.044 728.656 214.172C729.624 215.14 731.365 216.494 733.687 218.429C739.105 222.88 741.234 224.428 744.136 229.846C745.684 232.361 746.458 235.07 746.458 237.973Z" fill="#CB997E"/>
</svg>
